<svg aria-hidden="true" focusable="false" role="img" viewBox="0 0 20 20" class="" fill="none" stroke="currentColor" stroke-linecap="round" stroke-linejoin="round"><g clip-path="url(#a)" stroke="currentColor" stroke-width="1.25"><path d="M3.333 16.667h13.334" stroke-linecap="round" stroke-linejoin="round"></path><path d="M6.875 3.125h-.417c-.92 0-1.666.746-1.666 1.667v7.083c0 .92.746 1.667 1.666 1.667h.417c.92 0 1.667-.746 1.667-1.667V4.792c0-.92-.747-1.667-1.667-1.667ZM13.542 5.817h-.417c-.92 0-1.667.747-1.667 1.667v4.391c0 .92.746 1.667 1.667 1.667h.417c.92 0 1.666-.746 1.666-1.667V7.484c0-.92-.746-1.667-1.666-1.667Z"></path></g><defs><clipPath id="a"><path fill="#fff" d="M0 0h20v20H0z"></path></clipPath></defs></svg>