<svg aria-hidden="true" focusable="false" role="img" viewBox="0 0 20 20" class="" fill="none" stroke="currentColor" stroke-linecap="round" stroke-linejoin="round"><g stroke="currentColor" stroke-width="1.25"><path d="M1.667 10h2.916" stroke-linecap="round" stroke-linejoin="round"></path><path d="M8.333 10h3.334" stroke-linejoin="round"></path><path d="M15.417 10h2.916" stroke-linecap="round" stroke-linejoin="round"></path><path d="M6.875 4.792h-.417c-.92 0-1.666.746-1.666 1.666v7.084c0 .92.746 1.666 1.666 1.666h.417c.92 0 1.667-.746 1.667-1.666V6.458c0-.92-.747-1.666-1.667-1.666ZM13.542 6.458h-.417c-.92 0-1.667.747-1.667 1.667v3.75c0 .92.746 1.667 1.667 1.667h.417c.92 0 1.666-.746 1.666-1.667v-3.75c0-.92-.746-1.667-1.666-1.667Z"></path></g></svg>