<svg aria-hidden="true" focusable="false" role="img" viewBox="0 0 182 182" class="rtl-mirror"><path d="M25 26H111V111H25" fill="var(--icon-fill-color)"></path><path d="M25 111C25 80.2068 25 49.4135 25 26M25 26C48.6174 26 72.2348 26 111 26H25ZM25 26C53.3671 26 81.7343 26 111 26H25ZM111 26C111 52.303 111 78.606 111 111V26ZM111 26C111 51.2947 111 76.5893 111 111V26ZM111 111C87.0792 111 63.1585 111 25 111H111ZM111 111C87.4646 111 63.9293 111 25 111H111ZM25 111C25 81.1514 25 51.3028 25 26V111Z" stroke="var(--icon-fill-color)" stroke-width="2"></path><path d="M100 100H160V160H100" fill="var(--icon-fill-color)"></path><path d="M100 160C100 144.106 100 128.211 100 100M100 100C117.706 100 135.412 100 160 100H100ZM100 100C114.214 100 128.428 100 160 100H100ZM160 100C160 120.184 160 140.369 160 160V100ZM160 100C160 113.219 160 126.437 160 160V100ZM160 160C145.534 160 131.068 160 100 160H160ZM160 160C143.467 160 126.934 160 100 160H160ZM100 160C100 143.661 100 127.321 100 100V160Z" stroke="var(--icon-fill-color)" stroke-width="2"></path><g fill="#a5d8ff" stroke="var(--icon-fill-color)" stroke-width="6"><rect x="2.5" y="2.5" width="30" height="30"></rect><rect x="78.5" y="149.5" width="30" height="30"></rect><rect x="147.5" y="149.5" width="30" height="30"></rect><rect x="147.5" y="78.5" width="30" height="30"></rect><rect x="105.5" y="2.5" width="30" height="30"></rect><rect x="2.5" y="102.5" width="30" height="30"></rect></g></svg>